# xmcd CD database file
#
# Track frame offsets:
#	150
#	14548
#	31051
#	46002
#	57485
#	71324
#	85700
#	98919
#	110693
#	127242
#	146551
#	161360
#	175882
#	191055
#	206227
#	226030
#	243581
#	259680
#	275016
#	289542
#	306261
#
# Disc length: 4293 seconds
#
# Revision: 2
# Processed by: cddbd v1.5.2PL0 Copyright (c) Steve Scherf et al.
# Submitted via: CDex 1.51
#
DISCID=2d10c315
DTITLE=Fausto Papetti - Grand Collection
DYEAR=1999
DGENRE=Blues
TTITLE0=I Just Called To Say I Love You
TTITLE1=Bossa For My Lady
TTITLE2=Mask The Knife
TTITLE3=Love Me From "Goodfather"
TTITLE4=Adagio Di Albioni
TTITLE5=The Windmiles Of You Mind
TTITLE6=Love Story
TTITLE7=Strangers In The Night
TTITLE8=This Is Not America
TTITLE9=Reality
TTITLE10=Theme Frome Paradise
TTITLE11=Women In Love
TTITLE12=Emanuelle
TTITLE13=Your Eyes
TTITLE14=Ditencello Vuje
TTITLE15=Aranjues Mon Amour
TTITLE16=Feelings
TTITLE17=Hill Street Blues
TTITLE18=live is live
TTITLE19=Part - Time Lover
TTITLE20=Yesterday
EXTD=YEAR: 1999
EXTT0=
EXTT1=
EXTT2=
EXTT3=
EXTT4=
EXTT5=
EXTT6=
EXTT7=
EXTT8=
EXTT9=
EXTT10=
EXTT11=
EXTT12=
EXTT13=
EXTT14=
EXTT15=
EXTT16=
EXTT17=
EXTT18=
EXTT19=
EXTT20=
PLAYORDER=
